<?xml version="1.0" encoding="UTF-8" standalone="no"?>
<!-- Created with Inkscape (http://www.inkscape.org/) -->

<svg
   width="1280"
   height="445.48639"
   viewBox="0 0 338.66665 117.86827"
   version="1.1"
   id="svg1"
   inkscape:version="1.4.2 (ebf0e940d0, 2025-05-08)"
   sodipodi:docname="Logo.svg"
   inkscape:export-filename="Logo.jpg"
   inkscape:export-xdpi="96"
   inkscape:export-ydpi="96"
   xmlns:inkscape="http://www.inkscape.org/namespaces/inkscape"
   xmlns:sodipodi="http://sodipodi.sourceforge.net/DTD/sodipodi-0.dtd"
   xmlns="http://www.w3.org/2000/svg"
   xmlns:svg="http://www.w3.org/2000/svg">
  <sodipodi:namedview
     id="namedview1"
     pagecolor="#ffffff"
     bordercolor="#000000"
     borderopacity="0.25"
     inkscape:showpageshadow="false"
     inkscape:pageopacity="0.0"
     inkscape:pagecheckerboard="0"
     inkscape:deskcolor="#f6f6f6"
     inkscape:document-units="px"
     showborder="false"
     borderlayer="false"
     inkscape:zoom="0.70710678"
     inkscape:cx="586.89863"
     inkscape:cy="303.34881"
     inkscape:window-width="2560"
     inkscape:window-height="1371"
     inkscape:window-x="2560"
     inkscape:window-y="32"
     inkscape:window-maximized="1"
     inkscape:current-layer="layer1" />
  <defs
     id="defs1" />
  <g
     inkscape:label="Layer 1"
     inkscape:groupmode="layer"
     id="layer1"
     transform="translate(-128.3229,-81.491615)">
    <path
       id="rect7"
       style="fill:#114a81;stroke-width:0.264583;stroke-linecap:round;stroke-linejoin:round;stroke-miterlimit:15.3;fill-opacity:1"
       d="M 128.32291,81.491615 H 466.98956 V 199.35989 H 128.32291 Z" />
    <path
       style="font-size:35.4592px;font-family:Redland;-inkscape-font-specification:'Redland, Normal';fill:#93dcb8;fill-opacity:1;stroke-width:0.264583"
       d="m 466.98938,165.5729 v 0 0 h -0.76906 -0.25627 c -1.53808,-0.12651 -3.07615,-0.64088 -4.35787,-1.40972 -2.8198,-2.30723 -2.94797,-6.92134 -2.94797,-13.45845 v -18.71308 c 0.12832,-6.66507 -3.71703,-13.71437 -9.86932,-16.66249 -1.4099,-0.7692 -3.07614,-1.28176 -4.61422,-1.53804 -3.06045,-0.34814 -6.37414,-0.35994 -9.35661,0.51112 -1.55567,0.45435 -3.46064,1.60258 -4.22966,2.17964 v 0.13012 c 11.03627,-3.43632 13.49528,4.4866 13.8427,13.71438 v 20.37943 c 0,2.8198 0.89719,5.51163 2.43526,7.81887 1.53808,2.17892 3.58885,3.84491 5.89594,4.99871 2.17896,1.15344 4.61426,1.79432 7.04953,1.92228 2.30712,0.25664 4.48604,0.25664 6.79317,0.12651 h 0.38452 z"
       id="path68"
       sodipodi:nodetypes="ccccccscccsccsscccccc" />
    <path
       style="font-size:35.4592px;font-family:Redland;-inkscape-font-specification:'Redland, Normal';fill:#93dcb8;fill-opacity:1;stroke-width:0.264583"
       d="m 436.61241,165.5729 c 0,0 -0.12832,0 -0.25628,0 -7.81854,-0.12651 -7.94671,-7.8185 -7.94671,-20.63572 v -31.65861 l -14.22719,3.84491 -3.46067,0.89716 v 0 c 0.76902,-0.12652 1.66625,0 2.30709,0.51292 0.76906,0.51255 1.15358,1.40971 1.15358,2.17891 v 24.22471 c 0.12832,5.63959 2.56345,11.15086 6.79314,14.99613 2.05077,1.92264 4.48604,3.46068 7.1777,4.48615 2.43526,0.76884 4.99874,1.15344 7.56218,1.15344 0.64088,0 0.89723,0 0.89723,0 z"
       id="path67" />
    <path
       style="font-size:35.4592px;font-family:Redland;-inkscape-font-specification:'Redland, Normal';fill:#93dcb8;fill-opacity:1;stroke-width:0.264583"
       d="m 410.4977,162.49683 c -3.71702,1.92263 -8.07489,0.25664 -8.07489,-5.12703 v -27.17247 c -0.12832,-2.94811 -1.0254,-5.76791 -2.69165,-8.07514 -1.53808,-2.17892 -3.46064,-3.97323 -5.76777,-5.25499 -2.17895,-1.15344 -4.61422,-2.0506 -7.04952,-2.4352 -1.79442,-0.3846 -3.71699,-0.64088 -5.63959,-0.7692 -1.02537,0 -1.79442,0 -1.79442,0 v 0 c 0.38453,0 0.64088,0 1.02537,0 7.6904,1.1538 7.6904,16.53453 7.6904,16.53453 v 22.17376 c 0,2.81979 0.89719,5.51163 2.56344,7.8185 1.53807,2.05096 3.71703,3.71695 6.15229,4.61447 1.15355,0.51256 2.43531,0.89716 3.71703,1.02512 1.15354,0.13013 2.43527,0.13013 3.71702,-0.25664 2.05074,-0.51256 4.10152,-1.53804 5.76777,-2.81979 0.12832,-0.12652 0.25628,-0.12652 0.25628,-0.12652 v -0.12651 c 0,0 0.12832,0 0.12832,0 z"
       id="path66" />
    <path
       style="font-size:35.4592px;font-family:Redland;-inkscape-font-specification:'Redland, Normal';fill:#93dcb8;fill-opacity:1;stroke-width:0.264583"
       d="m 368.84152,127.76178 c 3.3325,0 5.89594,-2.69148 5.89594,-5.89587 0,-3.33235 -2.56344,-6.02419 -5.89594,-6.02419 -3.33249,0 -5.89597,2.69184 -5.89597,6.02419 0,3.20439 2.56348,5.89587 5.89597,5.89587 z"
       id="path65" />
    <path
       id="path64"
       style="font-size:35.4592px;font-family:Redland;-inkscape-font-specification:'Redland, Normal';fill:#93dcb8;fill-opacity:1;stroke-width:0.264583"
       d="m 378.77944,132.67815 c -3.97935,0.52456 -10.65271,1.98357 -15.44919,4.56665 -2.82796,1.52296 -4.999,3.84507 -6.53707,6.53655 -2.56344,4.87075 -2.30669,10.76686 0.76946,15.38097 0.51266,0.76919 1.15333,1.53832 1.79421,2.1792 0.64084,0.64088 1.28152,1.15349 1.92236,1.66605 2.69166,1.79468 5.6401,2.69202 8.84442,2.81998 2.81979,0 5.63911,-0.38459 8.33076,-1.15342 2.69162,-0.7692 5.51148,-1.79454 8.07496,-3.0763 -4.33238,1.94936 -7.9432,1.0338 -9.10022,0.64228 -4.87057,-1.53804 -7.30579,-4.87082 -9.10022,-11.40757 -1.15354,-3.33235 -0.89726,-7.04961 0.76895,-10.25364 0.76905,-1.66636 1.79454,-2.94795 3.0763,-4.22971 2.29861,-1.93903 5.4394,-3.28919 6.61665,-3.64888 z"
       sodipodi:nodetypes="csccscccccccccc" />
    <path
       id="path63"
       style="font-size:35.4592px;font-family:Redland;-inkscape-font-specification:'Redland, Normal';fill:#93dcb8;fill-opacity:1;stroke-width:0.264583"
       d="m 317.54803,116.61195 c 10.25381,-3.58899 13.97073,3.58903 13.97073,13.71441 v 20.37963 c 0,2.8198 0.76929,5.51141 2.43551,7.81865 1.40993,2.17892 3.42953,3.90563 5.89576,5.12681 3.93212,1.94703 8.43646,2.11782 12.75685,1.96888 v -0.0946 c -1.38857,-0.18082 -2.76728,-0.66807 -4.0411,-1.36271 -2.8198,-2.30723 -2.81947,-6.92098 -2.81947,-13.45809 v -18.71307 c 0.12832,-6.66507 -3.71737,-13.71443 -9.99784,-16.66255 -1.4099,-0.7692 -2.94548,-1.29868 -4.61419,-1.53841 -8.22259,-1.18128 -13.58625,2.29731 -13.58625,2.82105 z"
       sodipodi:nodetypes="csscscccsccsc" />
    <path
       style="font-size:35.4592px;font-family:Redland;-inkscape-font-specification:'Redland, Normal';fill:#93dcb8;fill-opacity:1;stroke-width:0.264583"
       d="m 297.91558,165.5729 c 0,0 -0.12832,0 -0.25628,0 -7.81854,-0.12651 -7.94671,-7.8185 -7.94671,-20.63572 v -31.65861 l -14.22719,3.84491 -3.46067,0.89716 v 0 c 0.76905,-0.12652 1.66625,0 2.30713,0.51292 0.76902,0.51255 1.15354,1.40971 1.15354,2.17891 v 24.22471 c 0.12832,5.63959 2.56348,11.15086 6.79317,14.99613 2.05078,1.92264 4.48605,3.46068 7.17767,4.48615 2.4353,0.76884 4.99874,1.15344 7.56222,1.15344 0.64084,0 0.89719,0 0.89719,0 z"
       id="path61" />
    <path
       style="font-size:35.4592px;font-family:Redland;-inkscape-font-specification:'Redland, Normal';fill:#93dcb8;fill-opacity:1;stroke-width:0.264583"
       d="m 257.26518,96.488844 -14.22802,3.717316 -7.56135,2.05095 c 1.79442,-0.3846 3.71641,7.3e-4 5.25448,1.15416 1.40993,1.15344 2.30687,2.82016 2.30687,4.7428 v 5.00991 h -6.81232 v 1.0497 h 6.81232 v 30.7235 c 0.12833,5.76755 2.69282,11.1505 6.92254,14.99577 2.05074,2.05096 4.48496,3.58972 7.17658,4.48688 2.4353,0.89715 4.99976,1.28067 7.56324,1.15235 h 0.6407 c -7.94672,-0.12651 -8.07504,-7.81778 -8.07504,-20.635 v -30.7235 h 11.03942 v -1.0497 h -11.03942 z"
       id="path49" />
    <path
       style="font-size:35.4592px;font-family:Redland;-inkscape-font-specification:'Redland, Normal';fill:#93dcb8;fill-opacity:1;stroke-width:0.264583"
       d="m 232.02952,165.5729 v 0 c -0.12832,0 -0.25628,0 -0.25628,0 -7.94671,-0.12651 -8.07489,-7.8185 -8.07489,-20.63572 V 81.49163 l -14.22718,3.844911 -7.56219,2.050957 v 0 c 1.79442,-0.512559 3.71702,-0.126513 5.25509,1.025478 1.4099,1.153437 2.3071,2.947753 2.3071,4.87039 v 51.653814 c 0.12832,5.76755 2.69165,11.15086 6.92134,14.99613 2.05078,2.05096 4.48605,3.589 7.1777,4.48615 2.43527,0.89716 4.87057,1.28176 7.43401,1.15344 0.64088,0 1.02537,0 1.02537,0 z"
       id="path30" />
    <path
       style="font-size:35.4592px;font-family:Redland;-inkscape-font-specification:'Redland, Normal';fill:#93dcb8;fill-opacity:1;stroke-width:0.264583"
       d="M 193.81919,156.60096 168.56915,83.029667 v -0.126513 l -7.43405,22.045796 v 0 l 17.55968,51.65382 c 0.76905,2.05059 0.38453,4.35783 -0.89719,6.15214 -1.28173,1.79432 -3.3325,2.8198 -5.51145,2.8198 v 0.12651 h 34.09399 v -0.12651 c -5.63959,0 -10.76651,-3.58863 -12.56094,-8.97194 z"
       id="path26" />
    <path
       style="font-size:35.4592px;font-family:Redland;-inkscape-font-specification:'Redland, Normal';fill:#93dcb8;fill-opacity:1;stroke-width:0.264583"
       d="m 145.24167,153.78117 c 0,-1.41008 0.25628,-2.8198 0.64088,-4.10156 v 0 c -2.30713,6.79303 -10.38202,15.89329 -17.55969,15.89329 v 0.12651 h 24.22468 v -0.12651 c -4.61422,0 -7.30587,-6.28047 -7.30587,-11.79173 z"
       id="text24" />
    <path
       style="font-weight:900;font-size:5.99834px;font-family:'Inter 18pt';-inkscape-font-specification:'Inter 18pt, Heavy';letter-spacing:9.71671px;fill:#93dcb8;fill-opacity:1;stroke-width:0.264583"
       d="m 443.9317,199.35989 q -2.07505,0 -3.61016,-0.61428 -1.5245,-0.61393 -2.36086,-1.8736 -0.82576,-1.26038 -0.83636,-3.19726 h 4.08655 q 0.0423,0.69853 0.37052,1.19604 0.3283,0.48702 0.91048,0.74084 0.59288,0.24124 1.40805,0.24124 0.68815,0 1.16458,-0.17131 0.47639,-0.17132 0.73049,-0.46535 0.25417,-0.30766 0.25417,-0.70972 0,-0.35801 -0.24368,-0.63526 -0.23285,-0.2762 -0.77283,-0.4975 -0.52932,-0.22026 -1.40805,-0.39158 l -1.57745,-0.32864 q -2.13857,-0.44436 -3.34546,-1.53517 -1.19632,-1.10095 -1.19632,-2.9326 0,-1.50335 0.81517,-2.63612 0.81524,-1.13276 2.255,-1.75718 1.43983,-0.63525 3.32431,-0.63525 1.92682,0 3.32427,0.63525 1.3975,0.63491 2.15974,1.79949 0.76227,1.16457 0.78346,2.73156 h -4.09714 q -0.0528,-0.78349 -0.59289,-1.21772 -0.53991,-0.44471 -1.56685,-0.44471 -0.64581,0 -1.0799,0.15733 -0.43405,0.16082 -0.65637,0.44471 -0.21187,0.2762 -0.21187,0.63526 0,0.38108 0.22236,0.65623 0.22236,0.2762 0.70934,0.47653 0.48698,0.20278 1.23866,0.36151 l 1.2916,0.26221 q 1.31278,0.2762 2.255,0.72021 0.95281,0.43423 1.55625,1.03732 0.60348,0.59295 0.87873,1.35512 0.28599,0.75168 0.28599,1.66208 0,1.57748 -0.77287,2.67843 -0.77283,1.10095 -2.22322,1.67292 -1.43983,0.57198 -3.47247,0.57198 z"
       id="path6" />
    <path
       style="font-weight:900;font-size:5.99834px;font-family:'Inter 18pt';-inkscape-font-specification:'Inter 18pt, Heavy';letter-spacing:9.71671px;fill:#93dcb8;fill-opacity:1;stroke-width:0.264583"
       d="m 387.42359,186.89915 v -3.51506 h 13.63591 v 3.51506 h -4.66883 v 12.25936 h -4.29828 v -12.25936 z"
       id="path5" />
    <path
       style="font-weight:900;font-size:5.99834px;font-family:'Inter 18pt';-inkscape-font-specification:'Inter 18pt, Heavy';letter-spacing:9.71671px;fill:#93dcb8;fill-opacity:1;stroke-width:0.264583"
       d="m 344.90077,199.35989 q -2.07502,0 -3.61013,-0.61428 -1.5245,-0.61393 -2.3609,-1.8736 -0.82576,-1.26038 -0.83635,-3.19726 h 4.08654 q 0.0423,0.69853 0.37053,1.19604 0.32829,0.48702 0.91047,0.74084 0.59289,0.24124 1.40809,0.24124 0.68815,0 1.16454,-0.17131 0.47639,-0.17132 0.7305,-0.46535 0.25417,-0.30766 0.25417,-0.70972 0,-0.35801 -0.24369,-0.63526 -0.23284,-0.2762 -0.77286,-0.4975 -0.52936,-0.22026 -1.40805,-0.39158 l -1.57741,-0.32864 q -2.13858,-0.44436 -3.3455,-1.53517 -1.19628,-1.10095 -1.19628,-2.9326 0,-1.50335 0.81517,-2.63612 0.81517,-1.13276 2.255,-1.75718 1.43983,-0.63525 3.32427,-0.63525 1.92682,0 3.32431,0.63525 1.39746,0.63491 2.15973,1.79949 0.76224,1.16457 0.78339,2.73156 h -4.0971 q -0.0528,-0.78349 -0.59289,-1.21772 -0.53991,-0.44471 -1.56685,-0.44471 -0.64578,0 -1.07986,0.15733 -0.43405,0.16082 -0.65637,0.44471 -0.21187,0.2762 -0.21187,0.63526 0,0.38108 0.22235,0.65623 0.22236,0.2762 0.70934,0.47653 0.48699,0.20278 1.23867,0.36151 l 1.29163,0.26221 q 1.31274,0.2762 2.255,0.72021 0.95281,0.43423 1.55625,1.03732 0.60344,0.59295 0.8787,1.35512 0.28599,0.75168 0.28599,1.66208 0,1.57748 -0.77284,2.67843 -0.77286,1.10095 -2.22322,1.67292 -1.43983,0.57198 -3.47251,0.57198 z"
       id="path4" />
    <path
       style="font-weight:900;font-size:5.99834px;font-family:'Inter 18pt';-inkscape-font-specification:'Inter 18pt, Heavy';letter-spacing:9.71671px;fill:#93dcb8;fill-opacity:1;stroke-width:0.264583"
       d="m 301.3616,183.38409 v 15.77442 h -4.30883 v -15.77442 z"
       id="path3" />
    <path
       style="font-weight:900;font-size:5.99834px;font-family:'Inter 18pt';-inkscape-font-specification:'Inter 18pt, Heavy';letter-spacing:9.71671px;fill:#93dcb8;fill-opacity:1;stroke-width:0.264583"
       d="m 246.76978,186.89915 v -3.51506 h 13.63588 v 3.51506 h -4.66884 v 12.25936 h -4.29824 v -12.25936 z"
       id="path2" />
    <path
       style="font-weight:900;font-size:5.99834px;font-family:'Inter 18pt';-inkscape-font-specification:'Inter 18pt, Heavy';letter-spacing:9.71671px;fill:#93dcb8;fill-opacity:1;stroke-width:0.264583"
       d="m 197.71483,199.15851 v -15.77442 h 6.7756 q 1.78917,0 3.12314,0.64574 1.33393,0.64575 2.06442,1.86312 0.74113,1.20688 0.74113,2.8798 0,1.68341 -0.76228,2.85848 -0.75168,1.16458 -2.12798,1.77851 -1.36568,0.60379 -3.19723,0.60379 h -4.00183 v -3.3455 h 3.30312 q 0.74105,0 1.25982,-0.20278 0.52935,-0.20277 0.8152,-0.61428 0.28599,-0.42303 0.28599,-1.07962 0,-0.65623 -0.28599,-1.07997 -0.28599,-0.42338 -0.8152,-0.63525 -0.51877,-0.21327 -1.25982,-0.21327 h -1.60922 v 12.31285 z m 8.58596,0 -3.75836,-7.22032 h 4.53119 l 3.86422,7.22032 z"
       id="path1" />
    <path
       style="font-weight:900;font-size:5.99834px;font-family:'Inter 18pt';-inkscape-font-specification:'Inter 18pt, Heavy';letter-spacing:9.71671px;fill:#93dcb8;fill-opacity:1;stroke-width:0.264583"
       d="m 144.91215,199.15851 5.15582,-15.77442 h 5.85453 l 5.31465,15.77442 h -4.87001 l -1.82091,-6.11937 q -0.58229,-1.99002 -1.11165,-4.08633 -0.51876,-2.1068 -0.99515,-4.2136 h 1.01634 q -0.45524,2.1068 -0.93166,4.2136 -0.47639,2.09631 -1.05868,4.08633 l -1.76802,6.11937 z m 3.82185,-2.9326 v -3.23956 h 8.68126 v 3.23956 z"
       id="text196" />
    <path
       id="path7"
       style="font-size:35.4592px;font-family:Redland;-inkscape-font-specification:'Redland, Normal';fill:#93dcb8;fill-opacity:1;stroke-width:0.264583"
       d="m 291.91688,116.61195 c 10.25381,-3.58899 13.97073,3.58903 13.97073,13.71441 v 20.37963 c 0,2.8198 0.76929,5.51141 2.43551,7.81865 1.40993,2.17892 3.42953,3.90563 5.89576,5.12681 3.93212,1.94703 8.43646,2.11782 12.75685,1.96888 v -0.0946 c -1.38857,-0.18082 -2.76728,-0.66807 -4.0411,-1.36271 -2.8198,-2.30723 -2.81947,-6.92098 -2.81947,-13.45809 v -18.71307 c 0.12832,-6.66507 -3.71737,-13.71443 -9.99784,-16.66255 -1.4099,-0.7692 -2.94548,-1.29868 -4.61419,-1.53841 -8.22259,-1.18128 -13.58625,2.29731 -13.58625,2.82105 z"
       sodipodi:nodetypes="csscscccsccsc" />
  </g>
</svg>
